<svg xmlns="http://www.w3.org/2000/svg" version="1.1" xmlns:xlink="http://www.w3.org/1999/xlink" xmlns:svgjs="http://svgjs.dev/svgjs" width="1500" height="1500" viewBox="0 0 1500 1500"><rect width="1500" height="1500" fill="#ffffff"></rect><g transform="matrix(0.6666666666666666,0,0,0.6666666666666666,249.66955861467721,123.84075573549268)"><svg viewBox="0 0 197 247" data-background-color="#dedede" preserveAspectRatio="xMidYMid meet" height="1880" width="1500" xmlns="http://www.w3.org/2000/svg" xmlns:xlink="http://www.w3.org/1999/xlink"><g id="tight-bounds" transform="matrix(1,0,0,1,0.06509695290858986,-0.09999999999999432)"><svg viewBox="0 0 196.86980609418282 247.2" height="247.2" width="196.86980609418282"><g><svg viewBox="0 0 196.86980609418282 247.2" height="247.2" width="196.86980609418282"><g><svg viewBox="0 0 196.86980609418282 247.2" height="247.2" width="196.86980609418282"><g id="textblocktransform"><svg viewBox="0 0 196.86980609418282 247.2" height="247.2" width="196.86980609418282" id="textblock"><g><svg viewBox="0 0 196.86980609418282 247.2" height="247.2" width="196.86980609418282"><g transform="matrix(1,0,0,1,0,0)"><svg width="196.86980609418282" viewBox="2.4 -34.8 28.75 36.099999999999994" height="247.2" data-palette-color="#374151"><path d="M9.4 0.9L2.8 0.3Q2.4-12.7 2.4-19.3 2.4-25.9 3.25-33.4L3.25-33.4 12.65-32.65Q14.4-26.35 16.35-15L16.35-15Q19.15-24.15 21.3-34.8L21.3-34.8 30.75-33.95Q31.15-18.5 31.15-11.38 31.15-4.25 30.7 1.3L30.7 1.3 23.85 0.65Q24.5-5.65 24.95-26.05L24.95-26.05 24.55-26.1Q24.05-24.15 22.95-19.4L22.95-19.4Q20.65-9.55 18.5-2.6L18.5-2.6 13.95-3Q12.75-7.8 11.18-15.43 9.6-23.05 8.75-26.65L8.75-26.65 8.35-26.7Q8.8-10 9.4 0.9L9.4 0.9Z" opacity="1" transform="matrix(1,0,0,1,0,0)" fill="#000000" class="wordmark-text-0" data-fill-palette-color="primary" id="text-0"></path></svg></g></svg></g></svg></g></svg></g><g></g></svg></g><defs></defs></svg><rect width="196.86980609418282" height="247.2" fill="none" stroke="none" visibility="hidden"></rect></g></svg></g></svg>